<svg width="20" height="20" viewBox="0 0 20 20" fill="none" xmlns="http://www.w3.org/2000/svg">
  <defs>
    <linearGradient id="s1" x1="0" y1="0" x2="0" y2="1">
      <stop offset="0%" stop-color="#FFF0A0"/>
      <stop offset="100%" stop-color="#8B4A10"/>
    </linearGradient>
  </defs>
  <rect x="3" y="8" width="1.5" height="10" rx="0.5" fill="url(#s1)"/>
  <rect x="15.5" y="8" width="1.5" height="10" rx="0.5" fill="url(#s1)"/>
  <path d="M2 4 L18 4 L18 9 L16.5 7.5 L15 9 L13 7.5 L11 9 L9 7.5 L7 9 L5 7.5 L3.5 9 L2 7.5 Z" fill="#8B1A1A"/>
  <rect x="4" y="4" width="2" height="4" fill="#FFD060" opacity="0.3"/>
  <rect x="8" y="4" width="2" height="4" fill="#FFD060" opacity="0.3"/>
  <rect x="12" y="4" width="2" height="4" fill="#FFD060" opacity="0.3"/>
  <rect x="2.5" y="12" width="15" height="2.5" rx="0.5" fill="url(#s1)"/>
  <circle cx="7" cy="11.5" r="1.2" fill="#C9A84C" opacity="0.9"/>
  <rect x="10" y="10" width="2" height="2.5" rx="0.5" fill="#A07830" opacity="0.8"/>
</svg>
